<svg width="20" height="18" viewBox="0 0 20 18" fill="none" xmlns="http://www.w3.org/2000/svg">
<path d="M2.5 4.5H4.16667M4.16667 4.5H17.5M4.16667 4.5L4.16667 15C4.16667 15.3978 4.34226 15.7794 4.65482 16.0607C4.96738 16.342 5.39131 16.5 5.83333 16.5H14.1667C14.6087 16.5 15.0326 16.342 15.3452 16.0607C15.6577 15.7794 15.8333 15.3978 15.8333 15V4.5M6.66667 4.5V3C6.66667 2.60218 6.84226 2.22064 7.15482 1.93934C7.46738 1.65804 7.89131 1.5 8.33333 1.5H11.6667C12.1087 1.5 12.5326 1.65804 12.8452 1.93934C13.1577 2.22064 13.3333 2.60218 13.3333 3V4.5M8.33333 8.25V12.75M11.6667 8.25V12.75" stroke="#606060" stroke-width="1.35" stroke-linecap="round" stroke-linejoin="round"/>
</svg>
