<svg width="21" height="20" viewBox="0 0 21 20" fill="none" xmlns="http://www.w3.org/2000/svg">
<path d="M11.2635 4.56074L12.596 3.34154C12.8181 3.13824 13.0819 2.97693 13.3722 2.86684C13.6626 2.75675 13.9739 2.70004 14.2882 2.69995C14.6026 2.69986 14.9139 2.7564 15.2043 2.86632C15.4947 2.97624 15.7586 3.1374 15.9808 3.34058L16.9662 4.24296C17.414 4.65326 17.6654 5.20907 17.6654 5.78852C17.6654 6.36798 17.414 6.92379 16.9662 7.33409L15.5342 8.64333M11.2635 4.56074L2.60876 12.4796C2.16084 12.8898 1.90923 13.4456 1.90912 14.0251V17.1H5.29494C5.92945 17.1 6.5377 16.8696 6.98628 16.4587L15.5342 8.64333M11.2635 4.56074L15.5342 8.64333" stroke="#606060" stroke-width="1.35" stroke-linecap="round" stroke-linejoin="round"/>
</svg>
