<svg width="21" height="21" viewBox="0 0 21 21" fill="none" xmlns="http://www.w3.org/2000/svg">
<path d="M7.8685 4.81896C9.03469 2.72774 9.61732 1.68213 10.489 1.68213C11.3606 1.68213 11.9433 2.72774 13.1094 4.81896L13.4113 5.36018C13.7427 5.95478 13.9084 6.25208 14.1661 6.44813C14.4238 6.64418 14.746 6.7169 15.3903 6.86233L15.9757 6.99487C18.2399 7.50755 19.3711 7.76343 19.6408 8.62956C19.9096 9.49476 19.1383 10.3977 17.5947 12.2027L17.1952 12.6693C16.7571 13.182 16.5371 13.4388 16.4386 13.7554C16.3402 14.073 16.3733 14.4154 16.4396 15.0993L16.5003 15.7224C16.7332 18.1312 16.8501 19.3351 16.145 19.8699C15.44 20.4047 14.3796 19.9168 12.2608 18.9412L11.7113 18.689C11.1093 18.411 10.8084 18.2729 10.489 18.2729C10.1696 18.2729 9.8686 18.411 9.26663 18.689L8.71806 18.9412C6.5983 19.9168 5.53796 20.4047 4.83383 19.8708C4.12786 19.3351 4.24475 18.1312 4.47762 15.7224L4.53837 15.1002C4.60464 14.4154 4.63778 14.073 4.53837 13.7564C4.4408 13.4388 4.22082 13.182 3.7827 12.6703L3.38323 12.2027C1.83966 10.3986 1.06834 9.49568 1.3371 8.62956C1.60587 7.76343 2.73892 7.50663 5.00319 6.99487L5.58858 6.86233C6.23197 6.7169 6.5532 6.64418 6.81184 6.44813C7.07048 6.25208 7.23524 5.95478 7.5666 5.36018L7.8685 4.81896Z" stroke="#E2E2E2" stroke-width="1.53409" stroke-linejoin="round"/>
</svg>
