<svg width="51" height="52" viewBox="0 0 51 52" fill="none" xmlns="http://www.w3.org/2000/svg">
<path d="M3.05498 15.8784C2.46607 15.2957 1.51634 15.3008 0.933691 15.8897C0.351041 16.4786 0.356113 17.4283 0.945019 18.011L3.05498 15.8784ZM36.8196 49.1691L37.3552 47.768L36.8196 49.1691ZM47.2738 46.9256L48.4956 47.7958L47.2738 46.9256ZM13.3705 2.0916L13.6217 0.612788L13.3705 2.0916ZM6.49821 4.42671L7.56896 5.47718V5.47718L6.49821 4.42671ZM3.7493 12.8331L2.34162 13.3512L3.7493 12.8331ZM2 16.9447C0.945019 18.011 0.945157 18.0111 0.945413 18.0114C0.945657 18.0116 0.946031 18.012 0.946517 18.0125C0.94749 18.0134 0.948934 18.0148 0.950847 18.0167C0.954673 18.0205 0.960373 18.0262 0.967919 18.0336C0.983011 18.0485 1.00549 18.0708 1.03512 18.1001C1.09439 18.1586 1.18231 18.2455 1.29707 18.3587C1.5266 18.5853 1.86354 18.9176 2.29358 19.3409C3.15363 20.1874 4.38613 21.3981 5.8765 22.8553C8.8569 25.7692 12.8701 29.6702 16.999 33.6159C21.1259 37.5597 25.3769 41.5566 28.8304 44.6588C30.5556 46.2086 32.0944 47.5466 33.3254 48.5465C33.9399 49.0457 34.4918 49.4722 34.9604 49.8024C35.3955 50.109 35.8645 50.4099 36.284 50.5702L37.3552 47.768C37.356 47.7683 37.2986 47.7446 37.1664 47.6656C37.0423 47.5915 36.8837 47.4877 36.6887 47.3502C36.2982 47.075 35.8049 46.6956 35.2169 46.2179C34.0425 45.264 32.5461 43.964 30.8352 42.4271C27.4163 39.3559 23.1916 35.3842 19.0717 31.4471C14.9538 27.5118 10.9494 23.6194 7.97377 20.7102C6.48615 19.2557 5.25608 18.0474 4.39807 17.2028C3.96907 16.7806 3.6331 16.4492 3.40447 16.2236C3.29016 16.1108 3.20269 16.0244 3.14384 15.9662C3.11442 15.9371 3.09215 15.9151 3.07727 15.9004C3.06983 15.893 3.06423 15.8875 3.06051 15.8838C3.05864 15.882 3.05725 15.8806 3.05633 15.8797C3.05587 15.8792 3.05553 15.8789 3.0553 15.8787C3.05508 15.8785 3.05498 15.8784 2 16.9447ZM36.284 50.5702C40.2463 52.0849 45.4224 52.1109 48.4956 47.7958L46.052 46.0555C44.1282 48.7567 40.7233 49.0555 37.3552 47.768L36.284 50.5702ZM48.4956 47.7958C49.7988 45.9658 50.5033 44.0324 50.5 41.9694C50.4967 39.9225 49.797 37.8967 48.5526 35.8671L45.995 37.4352C47.0414 39.1418 47.4978 40.6297 47.5 41.9742C47.5021 43.3027 47.0612 44.6384 46.052 46.0555L48.4956 47.7958ZM48.5526 35.8671C48.1939 35.2821 47.4114 34.3093 46.4133 33.1392C45.3852 31.934 44.0475 30.4271 42.5065 28.7318C39.4233 25.3398 35.504 21.169 31.5723 17.1028C27.6422 13.0381 23.6885 9.06604 20.5383 6.07531C18.9655 4.58221 17.5768 3.31814 16.4838 2.40583C15.9394 1.95146 15.4463 1.56579 15.0274 1.27855C14.8184 1.13525 14.6069 1.0019 14.402 0.893987C14.2203 0.79833 13.9423 0.667243 13.6217 0.612788L13.1193 3.57041C12.9705 3.54515 12.9153 3.50163 13.0042 3.54846C13.0699 3.58304 13.1768 3.64712 13.3308 3.75271C13.6379 3.96328 14.049 4.28133 14.5614 4.70901C15.582 5.5608 16.9171 6.77413 18.4727 8.25099C21.5792 11.2002 25.4999 15.1383 29.4156 19.1881C33.3298 23.2363 37.2277 27.3844 40.2866 30.7496C41.8166 32.4329 43.1312 33.9142 44.1308 35.0861C45.1604 36.293 45.781 37.0862 45.995 37.4352L48.5526 35.8671ZM13.6217 0.612788C10.2685 0.0431504 7.0509 1.72147 5.42747 3.37623L7.56896 5.47718C8.6946 4.32982 10.9744 3.20605 13.1193 3.57041L13.6217 0.612788ZM5.42747 3.37623C4.6943 4.12354 3.52813 5.43224 2.7356 7.11515C1.93286 8.81972 1.4759 10.999 2.34162 13.3512L5.15698 12.315C4.64761 10.931 4.87784 9.60762 5.44969 8.39331C6.03175 7.15733 6.92759 6.13093 7.56896 5.47718L5.42747 3.37623ZM2.34162 13.3512C2.8295 14.6768 4.03666 15.9308 5.2702 16.9829C6.56015 18.0831 8.11536 19.1555 9.58965 20.086C11.0702 21.0206 12.502 21.8327 13.5613 22.4101C14.0918 22.6993 14.531 22.9308 14.8388 23.0906C14.9928 23.1705 15.114 23.2326 15.1975 23.2751C15.2392 23.2963 15.2715 23.3126 15.2938 23.3239C15.3049 23.3295 15.3136 23.3338 15.3196 23.3368C15.3226 23.3384 15.325 23.3395 15.3267 23.3404C15.3276 23.3408 15.3283 23.3412 15.3288 23.3414C15.3291 23.3416 15.3293 23.3417 15.3295 23.3418C15.3297 23.3419 15.3299 23.342 16 22C16.6701 20.658 16.6702 20.6581 16.6703 20.6581C16.6703 20.6581 16.6703 20.6581 16.6702 20.6581C16.6701 20.658 16.6698 20.6578 16.6693 20.6576C16.6684 20.6572 16.6668 20.6564 16.6646 20.6553C16.6602 20.653 16.6532 20.6495 16.6437 20.6447C16.6248 20.6352 16.5958 20.6206 16.5576 20.6011C16.4811 20.5622 16.3673 20.504 16.2212 20.4281C15.9289 20.2763 15.5077 20.0543 14.9971 19.776C13.9743 19.2185 12.6012 18.4393 11.191 17.5492C9.77447 16.655 8.35295 15.6692 7.21698 14.7003C6.0246 13.6834 5.35665 12.8575 5.15698 12.315L2.34162 13.3512Z" fill="black"/>
<path d="M18 20L22 21.7839V25L18 24.4444V20Z" fill="#F7F7F7"/>
</svg>
