<svg width="21" height="20" viewBox="0 0 21 20" fill="none" xmlns="http://www.w3.org/2000/svg">
<path d="M7.85754 3.81896C9.02373 1.72774 9.60636 0.682129 10.478 0.682129C11.3497 0.682129 11.9323 1.72774 13.0985 3.81896L13.4004 4.36018C13.7317 4.95478 13.8974 5.25208 14.1551 5.44813C14.4129 5.64418 14.735 5.7169 15.3793 5.86232L15.9647 5.99487C18.229 6.50755 19.3602 6.76343 19.6299 7.62956C19.8986 8.49476 19.1273 9.39771 17.5838 11.2027L17.1843 11.6693C16.7462 12.182 16.5262 12.4388 16.4277 12.7554C16.3292 13.073 16.3623 13.4154 16.4286 14.0993L16.4894 14.7224C16.7222 17.1312 16.8391 18.3351 16.1341 18.8699C15.429 19.4047 14.3687 18.9168 12.2498 17.9412L11.7003 17.689C11.0984 17.411 10.7974 17.2729 10.478 17.2729C10.1586 17.2729 9.85764 17.411 9.25568 17.689L8.7071 17.9412C6.58734 18.9168 5.527 19.4047 4.82287 18.8708C4.1169 18.3351 4.2338 17.1312 4.46667 14.7224L4.52741 14.1002C4.59369 13.4154 4.62682 13.073 4.52741 12.7564C4.42985 12.4388 4.20987 12.182 3.77174 11.6703L3.37227 11.2027C1.82871 9.39863 1.05738 8.49568 1.32615 7.62956C1.59492 6.76343 2.72797 6.50663 4.99223 5.99487L5.57763 5.86232C6.22101 5.7169 6.54224 5.64418 6.80088 5.44813C7.05953 5.25208 7.22428 4.95478 7.55564 4.36018L7.85754 3.81896Z" fill="#002043" stroke="#002043" stroke-width="1.22727"/>
</svg>
