<svg width="25" height="17" viewBox="0 0 25 17" fill="none" xmlns="http://www.w3.org/2000/svg">
<path d="M13 1.5V3.5M13 7.5V9.5M13 13.5V15.5M3 1.5H17C17.5304 1.5 18.0391 1.71071 18.4142 2.08579C18.7893 2.46086 19 2.96957 19 3.5V6.5C18.4696 6.5 17.9609 6.71071 17.5858 7.08579C17.2107 7.46086 17 7.96957 17 8.5C17 9.03043 17.2107 9.53914 17.5858 9.91421C17.9609 10.2893 18.4696 10.5 19 10.5V13.5C19 14.0304 18.7893 14.5391 18.4142 14.9142C18.0391 15.2893 17.5304 15.5 17 15.5H3C2.46957 15.5 1.96086 15.2893 1.58579 14.9142C1.21071 14.5391 1 14.0304 1 13.5V10.5C1.53043 10.5 2.03914 10.2893 2.41421 9.91421C2.78929 9.53914 3 9.03043 3 8.5C3 7.96957 2.78929 7.46086 2.41421 7.08579C2.03914 6.71071 1.53043 6.5 1 6.5V3.5C1 2.96957 1.21071 2.46086 1.58579 2.08579C1.96086 1.71071 2.46957 1.5 3 1.5Z" stroke="#3C3C3C" stroke-width="2" stroke-linecap="round" stroke-linejoin="round"/>
<circle cx="20" cy="8.5" r="5" fill="#3C3C3C"/>
<path d="M18 8.5H22M20 6.5V10.5" stroke="white" stroke-linecap="round"/>
</svg>
