<svg width="18" height="17" viewBox="0 0 18 17" fill="none" xmlns="http://www.w3.org/2000/svg">
<path d="M6.8648 3.55594C7.81503 1.85198 8.28977 1 9 1C9.71023 1 10.185 1.85198 11.1352 3.55594L11.3812 3.99693C11.6512 4.48142 11.7862 4.72366 11.9962 4.88341C12.2062 5.04316 12.4687 5.1024 12.9937 5.2209L13.4706 5.3289C15.3156 5.74664 16.2373 5.95513 16.4571 6.66087C16.6761 7.36585 16.0476 8.10158 14.7899 9.5723L14.4644 9.95254C14.1074 10.3703 13.9281 10.5795 13.8479 10.8375C13.7676 11.0963 13.7946 11.3753 13.8486 11.9325L13.8981 12.4402C14.0879 14.4029 14.1831 15.3839 13.6086 15.8197C13.0342 16.2554 12.1702 15.8579 10.4437 15.0629L9.99598 14.8574C9.50549 14.6309 9.26024 14.5184 9 14.5184C8.73976 14.5184 8.49451 14.6309 8.00402 14.8574L7.55703 15.0629C5.82982 15.8579 4.96585 16.2554 4.39211 15.8204C3.81687 15.3839 3.91212 14.4029 4.10187 12.4402L4.15136 11.9332C4.20536 11.3753 4.23236 11.0963 4.15136 10.8383C4.07187 10.5795 3.89262 10.3703 3.53563 9.95329L3.21014 9.5723C1.95242 8.10233 1.32393 7.3666 1.54293 6.66087C1.76192 5.95513 2.68515 5.74589 4.53011 5.3289L5.00709 5.2209C5.53133 5.1024 5.79308 5.04316 6.00382 4.88341C6.21457 4.72366 6.34881 4.48142 6.61881 3.99693L6.8648 3.55594Z" stroke="#E2E2E2" strokeWidth="1.25" stroke-linejoin="round"/>
</svg>
