<svg width="136" height="88" viewBox="0 0 136 88" fill="none" xmlns="http://www.w3.org/2000/svg">
<g opacity="0.32">
<path d="M71 6V16.8333M71 38.5V49.3333M71 71V81.8333M16.8333 6H92.6667C95.5399 6 98.2953 7.14137 100.327 9.17301C102.359 11.2047 103.5 13.9602 103.5 16.8333V33.0833C100.627 33.0833 97.8713 34.2247 95.8397 36.2563C93.808 38.288 92.6667 41.0435 92.6667 43.9167C92.6667 46.7898 93.808 49.5453 95.8397 51.577C97.8713 53.6086 100.627 54.75 103.5 54.75V71C103.5 73.8732 102.359 76.6287 100.327 78.6603C98.2953 80.692 95.5399 81.8333 92.6667 81.8333H16.8333C13.9602 81.8333 11.2047 80.692 9.17301 78.6603C7.14137 76.6287 6 73.8732 6 71V54.75C8.87318 54.75 11.6287 53.6086 13.6603 51.577C15.692 49.5453 16.8333 46.7898 16.8333 43.9167C16.8333 41.0435 15.692 38.288 13.6603 36.2563C11.6287 34.2247 8.87318 33.0833 6 33.0833V16.8333C6 13.9602 7.14137 11.2047 9.17301 9.17301C11.2047 7.14137 13.9602 6 16.8333 6Z" stroke="url(#paint0_linear_527_6990)" stroke-width="10.8333" stroke-linecap="round" stroke-linejoin="round"/>
<circle cx="108.917" cy="43.9166" r="27.0833" fill="url(#paint1_linear_527_6990)"/>
<path d="M98.0833 43.9166H119.75M108.917 33.0833V54.7499" stroke="white" stroke-width="5.41667" stroke-linecap="round"/>
</g>
<defs>
<linearGradient id="paint0_linear_527_6990" x1="54.75" y1="6" x2="54.75" y2="81.8333" gradientUnits="userSpaceOnUse">
<stop stop-color="#A2A2A2"/>
<stop offset="1" stop-color="#3C3C3C"/>
</linearGradient>
<linearGradient id="paint1_linear_527_6990" x1="108.917" y1="16.8333" x2="108.917" y2="70.9999" gradientUnits="userSpaceOnUse">
<stop stop-color="#A2A2A2"/>
<stop offset="1" stop-color="#3C3C3C"/>
</linearGradient>
</defs>
</svg>
