<svg width="9" height="8" viewBox="0 0 9 8" fill="none" xmlns="http://www.w3.org/2000/svg">
<path d="M3.47596 1.89421C3.90788 1.11969 4.12367 0.732422 4.44651 0.732422C4.76934 0.732422 4.98513 1.11969 5.41705 1.89421L5.52887 2.09466C5.65159 2.31488 5.71295 2.425 5.80841 2.49761C5.90386 2.57022 6.02317 2.59715 6.2618 2.65101L6.47862 2.7001C7.31723 2.88998 7.7362 2.98476 7.83609 3.30554C7.93563 3.62599 7.64995 3.96041 7.07826 4.62892L6.93031 4.80176C6.76804 4.99164 6.68657 5.08675 6.65009 5.20402C6.61361 5.32163 6.62589 5.44845 6.65043 5.70174L6.67293 5.93253C6.75918 6.82467 6.80247 7.27056 6.54134 7.46863C6.28021 7.66669 5.88749 7.48601 5.10274 7.12466L4.89922 7.03125C4.67627 6.9283 4.5648 6.87716 4.44651 6.87716C4.32821 6.87716 4.21674 6.9283 3.99379 7.03125L3.79061 7.12466C3.00552 7.48601 2.6128 7.66669 2.35201 7.46897C2.09054 7.27056 2.13383 6.82467 2.22008 5.93253L2.24258 5.70208C2.26712 5.44845 2.2794 5.32163 2.24258 5.20436C2.20644 5.08675 2.12497 4.99164 1.9627 4.8021L1.81475 4.62892C1.24306 3.96076 0.957383 3.62633 1.05693 3.30554C1.15647 2.98476 1.57612 2.88964 2.41474 2.7001L2.63155 2.65101C2.86984 2.59715 2.98881 2.57022 3.08461 2.49761C3.1804 2.425 3.24142 2.31488 3.36414 2.09466L3.47596 1.89421Z" stroke="#E2E2E2" strokeWidth="0.568182" stroke-linejoin="round"/>
</svg>
