<svg width="22" height="22" viewBox="0 0 22 22" fill="none" xmlns="http://www.w3.org/2000/svg">
<path d="M8.8648 6.38944C9.81503 4.68548 10.2898 3.8335 11 3.8335C11.7102 3.8335 12.185 4.68548 13.1352 6.38944L13.3812 6.83043C13.6512 7.31491 13.7862 7.55716 13.9962 7.71691C14.2062 7.87665 14.4687 7.9359 14.9937 8.0544L15.4706 8.16239C17.3156 8.58013 18.2373 8.78863 18.4571 9.49436C18.6761 10.1993 18.0476 10.9351 16.7899 12.4058L16.4644 12.786C16.1074 13.2038 15.9281 13.413 15.8479 13.671C15.7676 13.9298 15.7946 14.2088 15.8486 14.766L15.8981 15.2737C16.0879 17.2364 16.1831 18.2174 15.6086 18.6531C15.0342 19.0889 14.1702 18.6914 12.4437 17.8964L11.996 17.6909C11.5055 17.4644 11.2602 17.3519 11 17.3519C10.7398 17.3519 10.4945 17.4644 10.004 17.6909L9.55703 17.8964C7.82982 18.6914 6.96585 19.0889 6.39211 18.6539C5.81687 18.2174 5.91212 17.2364 6.10187 15.2737L6.15136 14.7667C6.20536 14.2088 6.23236 13.9298 6.15136 13.6718C6.07187 13.413 5.89262 13.2038 5.53563 12.7868L5.21014 12.4058C3.95242 10.9358 3.32393 10.2001 3.54293 9.49436C3.76192 8.78863 4.68515 8.57938 6.53011 8.16239L7.00709 8.0544C7.53133 7.9359 7.79308 7.87665 8.00382 7.71691C8.21457 7.55716 8.34881 7.31491 8.61881 6.83043L8.8648 6.38944Z" stroke="#E2E2E2" stroke-width="1.25" stroke-linejoin="round"/>
</svg>
