<svg width="85" height="65" viewBox="0 0 85 65" fill="none" xmlns="http://www.w3.org/2000/svg">
<g opacity="0.7">
<path fillRule="evenodd" clipRule="evenodd" d="M14.8513 6.56473C9.21837 9.19704 5.09302 15.4618 5.09302 22.9316C5.09302 30.5612 8.14884 36.4439 12.522 41.4863C16.1313 45.6396 20.4977 49.0846 24.7555 52.4392C25.7696 53.2379 26.7712 54.0343 27.7604 54.8284C29.5463 56.2696 31.1387 57.5302 32.6768 58.4505C34.2149 59.3707 35.4474 59.7875 36.5 59.7875C37.5526 59.7875 38.7885 59.3707 40.3232 58.4505C41.8613 57.5302 43.4537 56.2696 45.2396 54.8284C46.2288 54.032 47.2304 53.2368 48.2445 52.4427C52.5023 49.0811 56.8687 45.6396 60.478 41.4863C64.8546 36.4439 67.907 30.5612 67.907 22.9316C67.907 15.4653 63.7816 9.19704 58.1487 6.56473C52.6754 4.00534 45.3211 4.68252 38.3335 12.1106C38.0959 12.3627 37.8111 12.5632 37.4961 12.7002C37.1811 12.8371 36.8423 12.9077 36.5 12.9077C36.1577 12.9077 35.8189 12.8371 35.5039 12.7002C35.1889 12.5632 34.9041 12.3627 34.6665 12.1106C27.6789 4.68252 20.3246 4.00534 14.8513 6.56473ZM36.5 6.68975C28.65 -0.498759 19.8594 -1.50584 12.7326 1.82448C5.21526 5.34928 0 13.5171 0 22.9351C0 32.1898 3.76884 39.2533 8.71586 44.9486C12.6748 49.5082 17.52 53.3248 21.8015 56.6933C22.7749 57.4573 23.7097 58.2004 24.6061 58.9228C26.3479 60.3257 28.2153 61.819 30.1066 62.9511C31.9978 64.0832 34.1572 65 36.5 65C38.8428 65 41.0022 64.0797 42.8934 62.9511C44.788 61.819 46.6521 60.3257 48.3939 58.9228C49.2903 58.2004 50.2251 57.4573 51.1985 56.6933C55.4766 53.3248 60.3252 49.5048 64.2841 44.9486C69.2312 39.2533 73 32.1898 73 22.9351C73 13.5171 67.7881 5.34928 60.2674 1.83143C53.1406 -1.50237 44.35 -0.495286 36.5 6.68975Z" fill="url(#paint0_linear_219_2011)"/>
<circle cx="63.5" cy="41.6665" r="21.5" fill="url(#paint1_linear_219_2011)"/>
<path d="M54.8999 41.6664H72.0999M63.4999 33.0664V50.2664" stroke="white" strokeWidth="5.41667" strokeLinecap="round"/>
</g>
<defs>
<linearGradient id="paint0_linear_219_2011" x1="-2.10162e-07" y1="28.5" x2="66.5" y2="40.5" gradientUnits="userSpaceOnUse">
<stop stop-color="#D0D0D0"/>
<stop offset="1" stop-color="#8A8A8A"/>
</linearGradient>
<linearGradient id="paint1_linear_219_2011" x1="63.5" y1="20.1665" x2="63.5" y2="63.1665" gradientUnits="userSpaceOnUse">
<stop stop-color="#D8D8D8"/>
<stop offset="1" stop-color="#676767"/>
</linearGradient>
</defs>
</svg>
