<svg width="20" height="18" viewBox="0 0 20 18" fill="none" xmlns="http://www.w3.org/2000/svg">
<path d="M4.03355 1.22268L4.03385 1.22254C5.84002 0.379972 8.03946 0.617197 10 2.31224C11.9606 0.618046 14.16 0.380835 15.9662 1.22429C17.9144 2.134 19.25 4.23668 19.25 6.64556C19.25 9 18.2869 10.7947 17.0395 12.2284L17.0395 12.2284C16.0462 13.3695 14.8331 14.3231 13.7817 15.1495L13.7788 15.1518L13.7785 15.1521C13.5393 15.3395 13.3096 15.5218 13.0894 15.6989L13.0894 15.6989C12.6623 16.0424 12.1892 16.4212 11.7045 16.7104L11.7044 16.7104C11.221 16.9985 10.6425 17.25 10 17.25C9.35763 17.25 8.77922 16.9995 8.29529 16.7103C7.81163 16.4212 7.33793 16.0425 6.9106 15.6989L6.91055 15.6989C6.69042 15.5218 6.46075 15.3395 6.22152 15.1521L6.2213 15.1519C5.16841 14.3249 3.95475 13.3715 2.96052 12.2284L4.03355 1.22268ZM4.03355 1.22268C2.08651 2.13407 0.75 4.23658 0.75 6.64556M4.03355 1.22268L0.75 6.64556M0.75 6.64556C0.75 8.99998 1.71306 10.7947 2.96048 12.2283L0.75 6.64556Z" fill="#002043" stroke="white" strokeWidth="0.5"/>
</svg>
