<svg width="15" height="15" viewBox="0 0 15 15" fill="none" xmlns="http://www.w3.org/2000/svg">
<path d="M3.68435 8.48518C3.42234 8.78942 3.30306 9.17031 3.35268 9.54432L3.61633 11.5287L5.86276 11.2303C6.28375 11.1743 6.66756 10.972 6.92995 10.6673L12.7691 3.89879C13.031 3.59453 13.1501 3.21365 13.1004 2.83969C13.0508 2.46572 12.8363 2.12918 12.504 1.90386L11.7728 1.40835C11.608 1.29682 11.4191 1.21607 11.217 1.17073C11.0148 1.12539 10.8035 1.11635 10.5949 1.14411C10.3863 1.17188 10.1847 1.23592 10.0015 1.33256C9.81827 1.42921 9.65711 1.55656 9.52719 1.70734L3.68435 8.48518Z" stroke="#CCCCCC" stroke-width="1.25" stroke-linecap="round" stroke-linejoin="round"/>
</svg>
