<svg width="18" height="21" viewBox="0 0 18 21" fill="none" xmlns="http://www.w3.org/2000/svg">
<path d="M11.2 5L6.1 8.5M11.2 16L6.1 12.5M6.1 10.5C6.1 11.163 5.83134 11.7989 5.35312 12.2678C4.8749 12.7366 4.2263 13 3.55 13C2.8737 13 2.2251 12.7366 1.74688 12.2678C1.26866 11.7989 1 11.163 1 10.5C1 9.83696 1.26866 9.20107 1.74688 8.73223C2.2251 8.26339 2.8737 8 3.55 8C4.2263 8 4.8749 8.26339 5.35312 8.73223C5.83134 9.20107 6.1 9.83696 6.1 10.5ZM16.3 17C16.3 17.663 16.0313 18.2989 15.5531 18.7678C15.0749 19.2366 14.4263 19.5 13.75 19.5C13.0737 19.5 12.4251 19.2366 11.9469 18.7678C11.4687 18.2989 11.2 17.663 11.2 17C11.2 16.337 11.4687 15.7011 11.9469 15.2322C12.4251 14.7634 13.0737 14.5 13.75 14.5C14.4263 14.5 15.0749 14.7634 15.5531 15.2322C16.0313 15.7011 16.3 16.337 16.3 17ZM16.3 4C16.3 4.66304 16.0313 5.29893 15.5531 5.76777C15.0749 6.23661 14.4263 6.5 13.75 6.5C13.0737 6.5 12.4251 6.23661 11.9469 5.76777C11.4687 5.29893 11.2 4.66304 11.2 4C11.2 3.33696 11.4687 2.70107 11.9469 2.23223C12.4251 1.76339 13.0737 1.5 13.75 1.5C14.4263 1.5 15.0749 1.76339 15.5531 2.23223C16.0313 2.70107 16.3 3.33696 16.3 4Z" stroke="#3C3C3C" strokeWidth="2" strokeLinecap="round" stroke-linejoin="round"/>
</svg>
