<svg width="9" height="8" viewBox="0 0 9 8" fill="none" xmlns="http://www.w3.org/2000/svg">
<path d="M3.41297 1.89421C3.84489 1.11969 4.06068 0.732422 4.38352 0.732422C4.70635 0.732422 4.92214 1.11969 5.35406 1.89421L5.46588 2.09466C5.5886 2.31488 5.64996 2.425 5.74542 2.49761C5.84087 2.57022 5.96018 2.59715 6.19882 2.65101L6.41563 2.7001C7.25424 2.88998 7.67321 2.98476 7.7731 3.30554C7.87264 3.62599 7.58696 3.96041 7.01527 4.62892L6.86732 4.80176C6.70505 4.99164 6.62358 5.08675 6.5871 5.20402C6.55063 5.32163 6.5629 5.44845 6.58744 5.70174L6.60994 5.93253C6.69619 6.82466 6.73948 7.27056 6.47835 7.46863C6.21722 7.66669 5.82451 7.48601 5.03975 7.12466L4.83623 7.03125C4.61328 6.9283 4.50181 6.87716 4.38352 6.87716C4.26522 6.87716 4.15375 6.9283 3.9308 7.03125L3.72762 7.12466C2.94253 7.48601 2.54981 7.66669 2.28902 7.46897C2.02755 7.27056 2.07084 6.82466 2.15709 5.93253L2.17959 5.70208C2.20414 5.44845 2.21641 5.32163 2.17959 5.20436C2.14346 5.08675 2.06198 4.99164 1.89971 4.8021L1.75176 4.62892C1.18007 3.96075 0.894395 3.62633 0.993938 3.30554C1.09348 2.98476 1.51313 2.88964 2.35175 2.7001L2.56856 2.65101C2.80685 2.59715 2.92582 2.57022 3.02162 2.49761C3.11741 2.425 3.17843 2.31488 3.30116 2.09466L3.41297 1.89421Z" fill="#002043" stroke="#002043" stroke-width="0.454545"/>
</svg>
