<svg width="16" height="17" viewBox="0 0 16 17" fill="none" xmlns="http://www.w3.org/2000/svg">
<path d="M5.8648 3.55594C6.81503 1.85198 7.28977 1 8 1C8.71023 1 9.18497 1.85198 10.1352 3.55594L10.3812 3.99693C10.6512 4.48142 10.7862 4.72366 10.9962 4.88341C11.2062 5.04315 11.4687 5.1024 11.9937 5.2209L12.4706 5.3289C14.3156 5.74664 15.2373 5.95513 15.4571 6.66087C15.6761 7.36585 15.0476 8.10158 13.7899 9.5723L13.4644 9.95254C13.1074 10.3703 12.9281 10.5795 12.8479 10.8375C12.7676 11.0963 12.7946 11.3753 12.8486 11.9325L12.8981 12.4402C13.0879 14.4029 13.1831 15.3839 12.6086 15.8197C12.0342 16.2554 11.1702 15.8579 9.44372 15.0629L8.99598 14.8574C8.50549 14.6309 8.26024 14.5184 8 14.5184C7.73976 14.5184 7.49451 14.6309 7.00402 14.8574L6.55703 15.0629C4.82982 15.8579 3.96584 16.2554 3.39211 15.8204C2.81687 15.3839 2.91212 14.4029 3.10187 12.4402L3.15136 11.9332C3.20536 11.3753 3.23236 11.0963 3.15136 10.8383C3.07187 10.5795 2.89262 10.3703 2.53563 9.95329L2.21014 9.5723C0.952416 8.10233 0.32393 7.3666 0.542925 6.66087C0.76192 5.95513 1.68515 5.74589 3.5301 5.3289L4.00709 5.2209C4.53133 5.1024 4.79308 5.04315 5.00382 4.88341C5.21457 4.72366 5.34881 4.48142 5.61881 3.99693L5.8648 3.55594Z" fill="#002043" stroke="#002043"/>
</svg>
