<svg width="32" height="32" viewBox="0 0 32 32" fill="none" xmlns="http://www.w3.org/2000/svg">
<rect width="32" height="32" rx="5" fill="white"/>
<path d="M13.704 8.512C12.488 8.912 11.544 9.576 10.872 10.504C10.216 11.416 9.888 12.552 9.888 13.912C9.888 14.52 9.944 14.936 10.056 15.16C10.168 15.384 10.224 15.52 10.224 15.568C8.512 15.568 7.656 14.84 7.656 13.384C7.656 12.392 8.032 11.4 8.784 10.408C9.552 9.4 10.528 8.584 11.712 7.96C12.912 7.32 14.104 7 15.288 7C15.88 7 16.488 7.112 17.112 7.336L16.56 19.984L21.84 7.336H25.296L22.776 25H19.32L20.856 14.224L16.344 25H13.056L13.536 14.176L9.528 25H7.608L13.704 8.512Z" fill="#3C3C3C"/>
</svg>
