<svg width="20" height="16" viewBox="0 0 20 16" fill="none" xmlns="http://www.w3.org/2000/svg">
<path d="M3.84615 3.80952C3.84615 3.50936 3.90584 3.21213 4.02182 2.93482C4.13779 2.6575 4.30777 2.40553 4.52206 2.19328C4.73635 1.98103 4.99075 1.81267 5.27073 1.6978C5.55071 1.58293 5.8508 1.52381 6.15385 1.52381C6.4569 1.52381 6.75698 1.58293 7.03696 1.6978C7.31694 1.81267 7.57134 1.98103 7.78563 2.19328C7.99992 2.40553 8.1699 2.6575 8.28588 2.93482C8.40185 3.21213 8.46154 3.50936 8.46154 3.80952C8.46154 4.41573 8.21841 4.99711 7.78563 5.42577C7.35286 5.85442 6.76588 6.09524 6.15385 6.09524C5.54181 6.09524 4.95484 5.85442 4.52206 5.42577C4.08928 4.99711 3.84615 4.41573 3.84615 3.80952ZM6.15385 0C5.13378 0 4.1555 0.401359 3.4342 1.11578C2.71291 1.83021 2.30769 2.79918 2.30769 3.80952C2.30769 4.81987 2.71291 5.78884 3.4342 6.50326C4.1555 7.21769 5.13378 7.61905 6.15385 7.61905C7.17391 7.61905 8.15219 7.21769 8.87349 6.50326C9.59478 5.78884 10 4.81987 10 3.80952C10 2.79918 9.59478 1.83021 8.87349 1.11578C8.15219 0.401359 7.17391 0 6.15385 0ZM13.8462 4.57143C13.8462 4.16729 14.0082 3.7797 14.2968 3.49393C14.5853 3.20816 14.9766 3.04762 15.3846 3.04762C15.7926 3.04762 16.184 3.20816 16.4725 3.49393C16.761 3.7797 16.9231 4.16729 16.9231 4.57143C16.9231 4.97557 16.761 5.36316 16.4725 5.64892C16.184 5.93469 15.7926 6.09524 15.3846 6.09524C14.9766 6.09524 14.5853 5.93469 14.2968 5.64892C14.0082 5.36316 13.8462 4.97557 13.8462 4.57143ZM15.3846 1.52381C14.5686 1.52381 13.7859 1.8449 13.2089 2.41644C12.6319 2.98798 12.3077 3.76315 12.3077 4.57143C12.3077 5.37971 12.6319 6.15488 13.2089 6.72642C13.7859 7.29796 14.5686 7.61905 15.3846 7.61905C16.2007 7.61905 16.9833 7.29796 17.5603 6.72642C18.1374 6.15488 18.4615 5.37971 18.4615 4.57143C18.4615 3.76315 18.1374 2.98798 17.5603 2.41644C16.9833 1.8449 16.2007 1.52381 15.3846 1.52381ZM0 11.4286C0 10.8224 0.243131 10.241 0.675908 9.81233C1.10868 9.38367 1.69565 9.14286 2.30769 9.14286H10C10.612 9.14286 11.199 9.38367 11.6318 9.81233C12.0646 10.241 12.3077 10.8224 12.3077 11.4286V11.5992C12.3074 11.6691 12.3023 11.7388 12.2923 11.808C12.2048 12.5468 11.9273 13.2509 11.4862 13.853C10.6446 15.0034 9.04462 16 6.15385 16C3.26308 16 1.66462 15.0034 0.82 13.853C0.379451 13.2508 0.102398 12.5466 0.0153846 11.808C0.00784451 11.7386 0.0027133 11.669 0 11.5992V11.4286ZM1.53846 11.5657V11.5764L1.54462 11.651C1.604 12.1228 1.78288 12.572 2.06462 12.957C2.56615 13.6396 3.65846 14.4762 6.15385 14.4762C8.64923 14.4762 9.74154 13.6396 10.2431 12.957C10.5248 12.572 10.7037 12.1228 10.7631 11.651L10.7692 11.5749V11.4286C10.7692 11.2265 10.6882 11.0327 10.5439 10.8898C10.3997 10.7469 10.204 10.6667 10 10.6667H2.30769C2.10368 10.6667 1.90802 10.7469 1.76376 10.8898C1.61951 11.0327 1.53846 11.2265 1.53846 11.4286V11.5657ZM15.3846 14.4762C14.48 14.4762 13.7385 14.339 13.1385 14.1135C13.3828 13.665 13.5694 13.1879 13.6938 12.6933C14.1062 12.8472 14.6538 12.9524 15.3846 12.9524C17.1062 12.9524 17.8123 12.3703 18.1231 11.9375C18.3061 11.6859 18.4215 11.3922 18.4585 11.0842L18.4615 11.0415C18.4599 10.9416 18.4187 10.8462 18.3467 10.7761C18.2748 10.706 18.1779 10.6667 18.0769 10.6667H13.7692C13.6552 10.1142 13.4187 9.59379 13.0769 9.14286H18.0769C19.1385 9.14286 20 9.99619 20 11.0476V11.0735C19.999 11.1291 19.9948 11.1845 19.9877 11.2396C19.9242 11.8111 19.7133 12.3569 19.3754 12.8244C18.7262 13.725 17.5092 14.4762 15.3846 14.4762Z" fill="#3C3C3C"/>
</svg>
