<svg width="15" height="19" viewBox="0 0 15 19" fill="none" xmlns="http://www.w3.org/2000/svg">
<path fill-rule="evenodd" clip-rule="evenodd" d="M7.46946 0C3.33997 0 0 3.36456 0 7.50641C0 9.51799 1.24526 12.0549 3.46604 15.0469C3.46605 15.0469 3.46605 15.0469 3.46604 15.0469C3.46603 15.0469 3.46603 15.0469 3.46604 15.047L3.4706 15.053L4.00029 15.7518C4.00031 15.7518 4.0003 15.7518 4.00029 15.7518C4.00027 15.7518 4.00027 15.7519 4.00028 15.7519L4.00681 15.7602C4.71259 16.6644 5.44305 17.548 6.19734 18.4112C6.70022 18.9867 7.48712 19.1265 8.13368 18.8504C8.51466 18.6877 8.48589 18.192 8.17605 17.917C8.48799 18.1896 8.96226 18.158 9.23145 17.8431C9.84888 17.1209 10.4165 16.4254 10.934 15.7566C10.934 15.7566 10.934 15.7566 10.9341 15.7566C10.9341 15.7567 10.9341 15.7566 10.9341 15.7566L10.9386 15.7507L11.4683 15.0519C11.4683 15.0519 11.4683 15.0519 11.4683 15.0519C11.4683 15.0519 11.4683 15.0519 11.4684 15.0519L11.4728 15.0459C13.6936 12.0546 14.9389 9.51803 14.9389 7.50641C14.9389 3.36456 11.5989 0 7.46946 0ZM9.74552 14.8415C9.11586 15.655 8.40554 16.5147 7.61392 17.4207C7.53077 17.5128 7.39721 17.5047 7.32686 17.4242C6.59177 16.583 5.88004 15.7221 5.19247 14.8414L4.66831 14.1499C2.46629 11.1826 1.5 8.99144 1.5 7.50641C1.5 4.18519 4.17618 1.5 7.46946 1.5C10.7627 1.5 13.4389 4.18519 13.4389 7.50641C13.4389 8.99139 12.4727 11.1822 10.2707 14.1487L9.74552 14.8415ZM5.38049 7.07746C5.38049 5.9454 6.29821 5.02768 7.43027 5.02768C8.56233 5.02768 9.48004 5.9454 9.48004 7.07746C9.48004 8.20951 8.56233 9.12723 7.43027 9.12723C6.29821 9.12723 5.38049 8.20951 5.38049 7.07746ZM7.43027 3.52768C5.46978 3.52768 3.88049 5.11697 3.88049 7.07746C3.88049 9.03794 5.46978 10.6272 7.43027 10.6272C9.39075 10.6272 10.98 9.03794 10.98 7.07746C10.98 5.11697 9.39075 3.52768 7.43027 3.52768Z" fill="#3C3C3C"/>
</svg>
