<svg width="32" height="31" viewBox="0 0 32 31" fill="none" xmlns="http://www.w3.org/2000/svg">
<rect x="0.5" width="31" height="31" rx="15.5" fill="#CCCCCC"/>
<path d="M25.6444 15.6722C25.6444 15.9736 25.5246 16.2628 25.3115 16.4759C25.0983 16.6891 24.8092 16.8088 24.5077 16.8088H17.3088V24.0077C17.3088 24.3092 17.1891 24.5983 16.9759 24.8115C16.7628 25.0246 16.4736 25.1444 16.1722 25.1444C15.8707 25.1444 15.5816 25.0246 15.3684 24.8115C15.1553 24.5983 15.0355 24.3092 15.0355 24.0077V16.8088H7.83662C7.53516 16.8088 7.24604 16.6891 7.03287 16.4759C6.81971 16.2628 6.69995 15.9736 6.69995 15.6722C6.69995 15.3707 6.81971 15.0816 7.03287 14.8684C7.24604 14.6553 7.53516 14.5355 7.83662 14.5355H15.0355V7.33662C15.0355 7.03516 15.1553 6.74604 15.3684 6.53287C15.5816 6.31971 15.8707 6.19995 16.1722 6.19995C16.4736 6.19995 16.7628 6.31971 16.9759 6.53287C17.1891 6.74604 17.3088 7.03516 17.3088 7.33662V14.5355H24.5077C24.8092 14.5355 25.0983 14.6553 25.3115 14.8684C25.5246 15.0816 25.6444 15.3707 25.6444 15.6722Z" fill="#606060"/>
</svg>
