<svg width="17" height="16" viewBox="0 0 17 16" fill="none" xmlns="http://www.w3.org/2000/svg">
<path d="M2.90606 13.5684L0.658278 15.8751C0.536759 15.9998 0.396667 16.0311 0.238 15.9691C0.0793334 15.9071 0 15.7875 0 15.6105V1.56716C0 1.12069 0.145759 0.748203 0.437278 0.449697C0.728796 0.151191 1.09146 0.00129223 1.52528 0H15.4747C15.9092 0 16.2718 0.149576 16.5627 0.448728C16.8536 0.74788 16.9994 1.12037 17 1.56619V12.0032C17 12.4491 16.8542 12.8215 16.5627 13.1207C16.2712 13.4198 15.9085 13.5691 15.4747 13.5684H2.90606ZM8.5 8.88443L10.0772 9.86911C10.2132 9.95698 10.3499 9.94987 10.4871 9.84779C10.6237 9.74505 10.6747 9.60743 10.6401 9.43492L10.2217 7.60608L11.6101 6.38202C11.7423 6.26119 11.7832 6.12163 11.7328 5.96333C11.6825 5.80503 11.571 5.71781 11.3985 5.70166L9.57006 5.53205L8.85228 3.80595C8.78554 3.64894 8.66811 3.57044 8.5 3.57044C8.33189 3.57044 8.21446 3.64894 8.14772 3.80595L7.42994 5.53108L5.6015 5.70166C5.42961 5.71781 5.31817 5.80503 5.26717 5.96333C5.21617 6.12163 5.25709 6.26119 5.38994 6.38202L6.77828 7.60608L6.36083 9.43395C6.32557 9.60711 6.37626 9.74505 6.51289 9.84779C6.64952 9.95052 6.78646 9.95763 6.92372 9.86911L8.5 8.88443Z" fill="#3C3C3C"/>
</svg>
